<svg version="1.2" xmlns="http://www.w3.org/2000/svg" viewBox="0 0 2000 2000" width="2000" height="2000">
	<title>ottr</title>
	<style>
		.s0 { fill: #0e66f1 } 
		.s1 { fill: #fcfdfd } 
	</style>
	<g id="Background">
		<path id="Path 0" class="s0" d="m368.5 0.7c-2.2 0.2-10.1 1-17.5 1.9-7.4 0.8-19.4 2.7-26.5 4-7.1 1.4-18.9 4-26 5.9-7.1 1.9-17.9 5.1-24 7.1-6.1 2-16.2 5.6-22.5 8.1-6.3 2.5-17.8 7.5-25.5 11.2-7.7 3.7-18.9 9.6-25 13.1-6.1 3.4-16.4 9.9-23 14.3-6.6 4.4-15.6 10.7-20 14.1-4.4 3.3-12.1 9.4-17 13.6-4.9 4.1-14.3 12.6-20.9 19-6.5 6.3-15.7 15.9-20.5 21.4-4.7 5.4-12.3 14.6-16.9 20.5-4.5 5.8-12 16.2-16.6 23.1-4.6 6.9-11.1 17.4-14.6 23.5-3.5 6.1-9.4 17.3-13.1 25-3.7 7.7-8.7 19.2-11.2 25.5-2.5 6.3-6.1 16.4-8.1 22.5-2 6.1-5.2 16.9-7.1 24-1.9 7.1-4.5 18.9-5.9 26-1.3 7.1-3.3 19.3-4.3 27-1.7 13.4-1.8 40.8-1.8 648.5 0 607.7 0.1 635.1 1.8 648.5 1 7.7 3 19.8 4.3 27 1.4 7.2 4 18.8 5.9 26 1.9 7.2 5.1 18 7.1 24 2 6 5.6 16.2 8.1 22.5 2.5 6.3 7.5 17.8 11.2 25.5 3.7 7.7 9.6 19 13.1 25 3.5 6 10 16.6 14.6 23.5 4.6 6.9 12.1 17.3 16.6 23.1 4.6 5.9 12.2 15.1 17 20.5 4.8 5.5 11.6 12.8 15.2 16.4l6.6 6.5c-0.4-124.8 0.1-185.8 0.8-216 0.7-30.2 1.7-74.8 2.2-99 0.6-24.2 1.5-52.1 2-62 0.6-9.9 1.7-25.9 2.5-35.5 0.8-9.6 1.9-29 2.5-43 0.6-14 1.5-32.7 2.1-41.5 0.5-8.8 1.7-22.1 2.5-29.5 0.8-7.4 2.3-31 3.4-52.5 1.1-21.5 2.7-46.9 3.5-56.5 0.8-9.6 1.9-22.9 2.5-29.5 0.5-6.6 1.7-23.7 2.5-38 0.9-14.3 2.3-31 3.1-37 0.8-6 1.9-14.4 2.4-18.5 0.5-4.1 1.6-16.7 2.5-28 0.9-11.3 2.3-23.7 3.1-27.5 0.9-3.8 2.9-16.9 4.5-29 1.6-12.1 3.6-24.9 4.4-28.5 0.7-3.6 2.1-13 2.9-21 0.8-8 2.6-20.1 4-27 1.4-6.9 3.2-18.1 4.1-25 0.9-6.9 2.5-16.3 3.6-21 1.1-4.7 3.2-14.6 4.6-22 1.3-7.4 3.1-16 3.9-19 0.8-3 2.3-10.7 3.4-17 1.2-6.3 2.9-14.4 4-18 1-3.6 2.6-10.3 3.5-15 0.9-4.7 3.2-14.4 5.1-21.5 1.9-7.1 4.4-16.1 5.5-20 1.2-3.9 3.2-11 4.4-16 1.3-5 4-14 5.9-20 1.9-6 4.1-13.2 5-16 0.8-2.7 3.4-10.2 5.6-16.5 2.2-6.3 6-17.1 8.4-24 2.4-6.9 5.9-16.5 7.9-21.5 1.9-5 4.7-12.1 6.2-16 1.4-3.9 3.5-8.8 4.7-11 1.1-2.2 3.2-7.1 4.5-11 1.4-3.9 9.3-20.3 17.5-36.5 8.1-16.2 17.1-33.3 19.8-38 2.7-4.7 6.1-10.7 7.6-13.5 1.5-2.7 4.1-7.2 5.9-10 1.8-2.7 5.8-9.3 9-14.5 3.1-5.2 6.7-11 7.9-12.8 1.1-1.8 5.7-8.3 10-14.5 4.3-6.2 10.1-14.3 12.9-18.2 2.8-3.9 12.9-16.9 22.6-29 9.7-12.1 24.2-28.7 32.2-37 8-8.2 18.3-18.6 23-23.1 4.6-4.4 16.3-14.8 25.9-23 9.6-8.2 19.1-16 21-17.4 1.9-1.4 4.2-3.2 5.1-4 0.9-0.8 4.8-3.7 8.8-6.5 3.9-2.7 10.6-7.5 14.8-10.5 4.3-3 11.1-7.6 15.3-10.1 4.1-2.6 16-9.3 26.5-15 10.5-5.7 24.4-13 31-16.4 6.6-3.3 13.6-6.7 15.5-7.4 1.9-0.8 4.6-2.2 6-3.1 1.4-1 6.5-3.4 11.5-5.5 5-2 13-5.1 18-6.9 5-1.8 9.7-3.6 10.5-4.1 0.8-0.5 6.5-2.6 12.5-4.7 6-2.2 15.5-5.3 21-7 5.5-1.6 10.9-3.5 12-4.1 1.1-0.6 7.6-2.5 14.5-4.2 6.9-1.8 18.6-4.8 26-6.8 7.4-1.9 15.1-4.2 17-5 1.9-0.8 9.1-2.2 16-3.2 6.9-0.9 15.2-2.5 18.5-3.6 3.3-1 9.6-2.3 14-2.9 4.4-0.6 15.4-2 24.5-3.2 9.1-1.1 20.5-2.7 25.5-3.4 5.8-0.9 24-1.6 51-2 23.1-0.3 60.5-0.1 83 0.5 32 0.8 43.8 1.4 53.5 3 6.9 1.1 20.8 2.7 31 3.5 12.4 1.1 21.5 2.4 27.5 4.1 5 1.3 14 3.2 20 4.1 6 0.9 13.9 2.5 17.5 3.6 3.6 1.1 11.2 3.1 17 4.3 5.8 1.2 13.9 3.2 18 4.4 4.1 1.1 11.8 3.2 17 4.5 5.2 1.3 15.3 4.2 22.5 6.4 7.2 2.2 18 5.8 24 8 6 2.2 15.5 5.7 21 7.7 5.5 2.1 10.5 4.1 11 4.5 0.5 0.5 3.9 1.9 7.5 3.3 3.6 1.4 13.7 5.9 22.5 10.1 8.8 4.2 23.7 11.6 33 16.3 9.3 4.8 20.2 10.3 24 12.3 3.8 2 11.5 6.1 17 9.1 5.5 3 12.9 7.5 16.5 10 3.6 2.5 7.1 4.8 7.7 5 0.7 0.2 6 3.8 11.8 7.9 5.8 4.1 21 15.8 33.7 26 18.8 15 27.9 23.2 47.8 43 15.6 15.6 28.7 29.8 36.1 39 6.4 8 13.3 17.2 15.5 20.4 2.1 3.3 5.6 8.5 7.6 11.5 2 3.1 5.1 8.1 6.9 11.1 1.8 3 5.2 9.6 7.7 14.5 2.4 5 6.5 13.5 9.2 19 2.6 5.5 6.4 13.6 8.5 18 2 4.4 6.4 13.6 9.7 20.5 3.4 6.9 9.3 17.9 13.2 24.5 3.8 6.6 9.9 16 13.5 21 3.6 5 9.9 13.3 14.2 18.5 4.2 5.2 14.2 15.8 22 23.6 7.9 7.7 21.6 19.8 30.4 26.9 8.8 7 25.7 19.6 37.7 27.9 11.9 8.3 25.3 17.1 29.8 19.6 4.5 2.5 10.3 5.9 12.8 7.7 2.6 1.7 8.5 5.3 13.2 7.9 4.7 2.6 12.1 6.9 16.5 9.5 4.4 2.7 10.2 6.1 12.9 7.6 2.6 1.5 7.1 4.3 10 6.2 2.8 1.8 6.7 4.1 8.6 5.1 1.9 1 7.1 4.2 11.5 7.2 4.4 2.9 11.8 8.5 16.4 12.3 6.2 5.2 9.9 9.4 14.6 16.5 3.5 5.2 8.1 14 10.4 19.5 2.2 5.5 4.9 14.5 6 20 1.1 5.5 2.5 14.3 3 19.5 0.6 6 0.7 13.7 0.1 21-0.6 6.3-1.3 13.5-1.6 16-0.3 2.5-1.2 8.5-2 13.5-0.8 5-3.1 15.3-5 23-2 7.7-5.6 19.2-8.1 25.5-2.4 6.3-6.4 15.3-8.7 20-2.3 4.7-7 13.2-10.4 19-3.5 5.8-9.9 15.5-14.3 21.5-4.4 6-10.8 14.4-14.2 18.5-3.4 4.1-12.3 13.5-19.7 21-7.5 7.4-21.6 20.3-31.5 28.5-9.9 8.3-21.4 17.8-25.5 21.1-4.1 3.3-11.3 8.8-16 12.1-4.7 3.4-10.7 8.1-13.4 10.5l-4.8 4.3c1.6 8.5 2.7 11.5 3.4 12.1 0.7 0.6 2.2 3.3 3.2 6 1.1 2.7 3.1 6.7 4.7 8.9 1.5 2.2 3.1 4.9 3.6 6 0.4 1.2 2.1 4.1 3.6 6.5 1.6 2.5 4.5 7.2 6.4 10.5 2 3.3 5 8.5 6.8 11.5 1.7 3 5.4 9.1 8.2 13.5 2.8 4.4 6.3 10.2 7.9 12.8 1.6 2.7 4.8 8.1 7 12 2.3 4 6.3 11 8.9 15.7 2.5 4.7 5.3 11.2 6.1 14.5 0.7 3.3 1.4 7.8 1.4 10 0 2.2-0.6 6.3-1.4 9-0.8 2.8-2.3 6.1-3.4 7.5-1 1.4-5.2 4.2-9.3 6.4-6.3 3.3-8.4 3.9-13.9 3.9-4.9 0.1-7.8-0.5-11.5-2.3-2.9-1.4-8.1-5.5-12.5-9.9-4.2-4.2-9.8-11-12.6-15.1-2.8-4.1-8.8-13.2-13.5-20.2-4.6-6.9-9.7-14.8-11.4-17.4-1.7-2.6-4.6-7.3-6.5-10.5-1.9-3.2-6.1-9.8-9.4-14.6-3.2-4.8-7.6-11.4-9.7-14.6-2.2-3.1-3.9-5.9-3.9-6.2 0-0.3-2.5-4.2-5.6-8.8-3-4.5-6.1-8.5-6.7-8.9-0.7-0.4-2.8-0.8-4.7-0.8-2.1 0-7.5 1.8-13.5 4.5-5.5 2.6-10.8 5-11.8 5.6-0.9 0.5-5.2 2.3-9.5 4-4.2 1.7-8.6 3.6-9.7 4.3-1.1 0.7-4.5 2.1-7.5 3.1-3 1.1-6.8 3.1-8.5 4.6-1.7 1.4-3.9 4.6-5 6.9-2 4.2-2 4.5-0.2 12.4 1 4.5 2.9 13.9 4.2 21.1 1.4 7.2 3.5 16.6 4.9 21 1.3 4.4 2.9 10.7 3.6 14 0.6 3.3 2.4 11.6 4 18.5 1.6 6.9 4.1 19.9 5.6 29 2.6 16.2 2.7 16.6 1 21.5-1 2.7-2.9 6.9-4.2 9.2-1.8 3.3-3.7 4.9-7.7 6.7-2.8 1.3-7.9 3-11.2 3.7-5.6 1.2-6.5 1.1-14.5-1.4-7-2.1-9.2-3.4-12.6-6.9-2.3-2.4-5.1-6.1-6.2-8.3-1.1-2.2-3.5-9-5.5-15-1.9-6-4.9-16.2-6.6-22.5-1.8-6.3-4.2-16-5.5-21.5-1.3-5.5-3.8-15.4-5.5-22-1.8-6.6-4.5-16-6.1-21-1.6-5-3.3-10.9-3.9-13.3-0.7-2.6-1.9-4.6-3.4-5.4-1.2-0.6-5.5-1-9.7-0.9-4.1 0.1-12.7 1.1-19 2.2-6.3 1.1-14.4 2.8-18 3.9-3.6 1-9.4 2.4-13 3-3.6 0.6-8.8 2.2-11.5 3.5-2.8 1.3-6 3.2-7.3 4.2-2 1.6-2.5 3.4-3.7 13.8-0.8 6.6-2.4 19.7-3.4 29-1.1 9.3-2.3 20.2-2.6 24-0.3 3.8-1.2 15.1-2.1 25-1.3 14.2-2.1 19.3-4.1 24-1.3 3.3-3.5 7.5-4.8 9.2-1.4 1.8-4.4 4.5-6.7 6-4 2.7-4.7 2.8-16.2 2.7-8.7-0.1-12.9-0.5-15.1-1.6-1.7-0.9-5.4-3.4-8.3-5.7-3.8-3-5.5-5.1-6.2-7.9-0.5-2-1-9.8-1-17.2 0-7.4 0.5-24.1 1-37 0.6-12.9 1.5-27.3 2.1-32 0.6-4.7 1.3-12.1 1.6-16.5 0.6-6.5 0.4-8.5-1-10.8-1.3-2.1-2.9-2.9-7-3.7-2.8-0.5-11-1.4-18.2-2-7.2-0.6-15.7-1.5-19-2-3.3-0.5-12.8-1.4-21-2-8.3-0.5-27.4-1.5-42.5-2-15.1-0.5-35.6-1-45.5-0.9-9.9 0-21.6 0.4-26 0.8-7 0.7-9.6 1.5-21.5 7.3-9.1 4.5-16.7 9.1-23.5 14.3-5.5 4.2-12.6 10.3-15.8 13.4-3.2 3.1-8.7 9-12.1 13.1-3.4 4.1-8.5 11.3-11.3 16-2.8 4.7-6.4 11.3-8.2 14.7-1.7 3.5-4.9 11.6-7 18.1-2.2 6.4-5.3 18.9-7 27.7-1.7 8.8-3.4 19.4-3.7 23.5-0.4 4.1-0.1 16.3 0.5 27 0.6 10.7 1.8 26.9 2.7 36 1.2 12.9 2.6 20.8 6.5 36.5 2.7 11 6.1 23.4 7.4 27.5 1.3 4.1 3.5 10.9 4.9 15 1.4 4.1 4.1 11.8 6 17 1.9 5.2 5 13.3 6.9 18 2 4.7 4.6 10.5 6 13 1.4 2.5 3 6.3 3.7 8.5 0.7 2.2 1.8 4.7 2.5 5.5 0.7 0.8 4.4 7.6 8.2 15 3.9 7.4 8.6 16.2 10.6 19.5 1.9 3.3 5.9 9.9 8.9 14.7 2.9 4.9 7.2 11.6 9.5 15 2.3 3.5 5.8 8.8 7.9 11.8 2 3 9.1 12.5 15.8 21 6.6 8.5 15.4 19.5 19.5 24.5 4.1 5 13.9 16 21.7 24.5 7.8 8.5 17.9 19.1 22.5 23.5 4.6 4.4 35.4 34.3 68.4 66.5 33 32.2 79.3 77.4 103 100.5 23.6 23 47.5 46.4 53 52 5.5 5.5 11.3 11.5 12.8 13.2l2.7 3.3c155.9-0.6 161.4-0.8 175.5-2.8 8.2-1.2 20.6-3.3 27.5-4.7 6.9-1.4 17.5-3.9 23.5-5.5 6-1.6 16-4.6 22-6.6 6-2 16.2-5.6 22.5-8.1 6.3-2.5 17.8-7.5 25.5-11.2 7.7-3.7 19-9.6 25-13.1 6-3.5 16.6-10 23.5-14.6 6.9-4.6 17.3-12.1 23.1-16.6 5.9-4.6 15.1-12.2 20.5-16.9 5.5-4.8 15.1-14 21.4-20.5 6.4-6.6 14.9-15.9 19-20.9 4.2-5 10.3-12.6 13.6-17 3.4-4.4 9.7-13.4 14.1-20 4.4-6.6 10.9-17 14.3-23 3.5-6 9.4-17.3 13.1-25 3.7-7.7 8.7-19.2 11.2-25.5 2.5-6.3 6.1-16.5 8.1-22.5 2-6 5.2-16.8 7.1-24 1.9-7.2 4.5-18.8 5.9-26 1.3-7.2 3.3-19.3 4.3-27 1.7-13.4 1.8-40.8 1.8-648.5 0-607.7-0.1-635.1-1.8-648.5-1-7.7-3-19.9-4.3-27-1.4-7.1-4-18.9-5.9-26-1.9-7.1-5.1-17.9-7.1-24-2-6.1-5.6-16.2-8.1-22.5-2.5-6.3-7.5-17.8-11.2-25.5-3.7-7.7-9.6-18.9-13.1-25-3.4-6.1-9.9-16.4-14.3-23-4.4-6.6-10.7-15.6-14.1-20-3.3-4.4-9.4-12.1-13.6-17-4.1-4.9-12.6-14.3-19-20.9-6.3-6.5-15.9-15.7-21.4-20.5-5.4-4.7-14.6-12.3-20.5-16.9-5.8-4.5-16.2-12-23.1-16.6-6.9-4.6-17.5-11.1-23.5-14.6-6-3.5-17.3-9.4-25-13.1-7.7-3.7-19.2-8.7-25.5-11.2-6.3-2.5-16.5-6.1-22.5-8.1-6-2-16-5-22-6.6-6-1.6-16.6-4.1-23.5-5.5-6.9-1.4-19.3-3.5-27.5-4.8l-15-2.1c-980.4-0.2-1266.8-0.1-1269 0.1z"/>
		<path id="Path 1" class="s1" d="m861.5 212.1c-7.7 0.4-19.6 1.6-26.5 2.8-6.9 1.1-19 2.7-27 3.6-8 0.8-15.9 1.8-17.5 2.1-1.6 0.3-5.7 1.4-9 2.4-3.3 1-11.6 2.6-18.5 3.5-6.9 0.9-14.1 2.4-16 3.2-1.9 0.8-9.6 3.1-17 5-7.4 2-19.1 5-26 6.8-6.9 1.7-13.4 3.6-14.5 4.2-1.1 0.6-6.5 2.5-12 4.1-5.5 1.7-15 4.8-21 7-6 2.1-11.7 4.2-12.5 4.7-0.8 0.5-5.5 2.3-10.5 4.1-5 1.8-13 4.9-18 6.9-5 2.1-10.1 4.5-11.5 5.5-1.4 0.9-4.1 2.3-6 3.1-1.9 0.7-8.9 4.1-15.5 7.4-6.6 3.4-20.5 10.7-31 16.4-10.5 5.7-22.4 12.4-26.5 15-4.2 2.5-11 7.1-15.3 10.1-4.2 3-10.9 7.8-14.8 10.5-4 2.8-7.9 5.7-8.8 6.5-0.9 0.8-3.2 2.6-5.1 4-1.9 1.4-11.4 9.2-21 17.4-9.6 8.2-21.3 18.6-25.9 23-4.7 4.5-15 14.9-23 23.1-8 8.3-22.5 24.9-32.2 37-9.7 12.1-19.8 25.1-22.6 29-2.8 3.9-8.6 12-12.9 18.2-4.3 6.2-8.9 12.7-10 14.5-1.2 1.8-4.8 7.6-7.9 12.8-3.2 5.2-7.2 11.8-9 14.5-1.8 2.8-4.4 7.3-5.9 10-1.5 2.8-4.9 8.8-7.6 13.5-2.7 4.7-11.7 21.8-19.8 38-8.2 16.2-16.1 32.6-17.5 36.5-1.3 3.9-3.4 8.8-4.5 11-1.2 2.2-3.3 7.1-4.7 11-1.5 3.9-4.3 11-6.2 16-2 5-5.5 14.6-7.9 21.5-2.4 6.9-6.2 17.7-8.4 24-2.2 6.3-4.8 13.8-5.6 16.5-0.9 2.8-3.1 10-5 16-1.9 6-4.6 15-5.9 20-1.2 5-3.2 12.1-4.4 16-1.1 3.9-3.6 12.9-5.5 20-1.9 7.1-4.2 16.8-5.1 21.5-0.9 4.7-2.5 11.4-3.5 15-1.1 3.6-2.8 11.7-4 18-1.1 6.3-2.6 14-3.4 17-0.8 3-2.6 11.6-3.9 19-1.4 7.4-3.5 17.3-4.6 22-1.1 4.7-2.7 14.1-3.6 21-0.9 6.9-2.7 18.1-4.1 25-1.4 6.9-3.2 19-4 27-0.8 8-2.2 17.4-2.9 21-0.8 3.6-2.8 16.4-4.4 28.5-1.6 12.1-3.6 25.2-4.5 29-0.8 3.8-2.2 16.2-3.1 27.5-0.9 11.3-2 23.9-2.5 28-0.5 4.1-1.6 12.5-2.4 18.5-0.8 6-2.2 22.7-3.1 37-0.8 14.3-2 31.4-2.5 38-0.6 6.6-1.7 19.9-2.5 29.5-0.8 9.6-2.4 35-3.5 56.5-1.1 21.5-2.6 45.1-3.4 52.5-0.8 7.4-2 20.7-2.5 29.5-0.6 8.8-1.5 27.5-2.1 41.5-0.6 14-1.7 33.4-2.5 43-0.8 9.6-1.9 25.6-2.5 35.5-0.5 9.9-1.4 37.8-2 62-0.5 24.2-1.5 68.8-2.2 99-0.7 30.3-1.2 91.2-1.1 135.5l0.2 80.5c10.5 9.8 19 17 25.6 22.3 6.6 5.4 16.5 12.9 22 16.8 5.5 3.9 14.9 10.2 21 14 6.1 3.7 19.1 10.9 29 15.9 9.9 5 23.9 11.4 31 14.2 7.1 2.8 17.9 6.7 24 8.7 6.1 2 16.9 5.2 24 7.1 7.1 1.9 18.9 4.5 26 5.9 7.1 1.3 19.3 3.3 27 4.3 13.4 1.7 38.1 1.8 568.2 1.8 304.8 0 554.4-0.3 554.7-0.7 0.3-0.5-0.8-2.5-2.4-4.5-1.7-2.1-17.3-17.7-34.8-34.7-17.4-17-58.4-57.1-91.1-89-32.7-32-73.1-71.4-89.8-87.6-16.7-16.2-36.1-35.8-43.2-43.5-7-7.7-16.1-18-20.2-23-4.1-5-12.9-16-19.5-24.5-6.7-8.5-13.8-18-15.8-21-2.1-3-5.6-8.3-7.9-11.8-2.3-3.4-6.6-10.1-9.5-15-3-4.8-7-11.4-8.9-14.7-2-3.3-6.7-12.1-10.6-19.5-3.8-7.4-7.5-14.2-8.2-15-0.7-0.8-1.8-3.3-2.5-5.5-0.7-2.2-2.3-6-3.7-8.5-1.4-2.5-4-8.3-6-13-1.9-4.7-5-12.8-6.9-18-1.9-5.2-4.6-12.9-6-17-1.4-4.1-3.6-10.9-4.9-15-1.3-4.1-4.7-16.5-7.4-27.5-3.9-15.7-5.3-23.6-6.5-36.5-0.9-9.1-2.1-25.3-2.7-36-0.6-10.7-0.9-22.9-0.5-27 0.3-4.1 2-14.7 3.7-23.5 1.7-8.8 4.8-21.3 7-27.7 2.1-6.5 5.3-14.6 7-18 1.8-3.5 5.4-10.1 8.2-14.8 2.8-4.7 7.9-11.9 11.3-16 3.4-4.1 8.9-10 12.1-13.1 3.2-3.1 10.3-9.2 15.8-13.4 6.8-5.2 14.4-9.8 23.5-14.3 11.9-5.8 14.5-6.6 21.5-7.3 4.4-0.4 16.1-0.8 26-0.8 9.9-0.1 30.4 0.4 45.5 0.9 15.1 0.5 34.2 1.5 42.5 2 8.2 0.6 17.7 1.5 21 2 3.3 0.5 11.8 1.4 19 2 7.1 0.6 15.4 1.5 18.2 2 4.1 0.8 5.7 1.6 7 3.8 1.4 2.2 1.6 4.2 1 10.7-0.3 4.4-1 11.8-1.6 16.5-0.6 4.7-1.5 19.1-2.1 32-0.5 12.9-1 29.6-1 37 0 7.4 0.5 15.2 1 17.3 0.7 2.7 2.4 4.8 6.2 7.8 2.9 2.3 6.6 4.8 8.3 5.7 2.2 1.1 6.4 1.5 15.1 1.6 11.5 0.1 12.2 0 16.2-2.6 2.3-1.6 5.3-4.3 6.7-6 1.3-1.8 3.5-6 4.8-9.3 2-4.7 2.8-9.8 4.1-24 0.9-9.9 1.8-21.2 2.1-25 0.3-3.8 1.5-14.7 2.6-24 1-9.3 2.6-22.4 3.4-29 1.2-10.4 1.7-12.2 3.7-13.8 1.3-1 4.5-2.9 7.3-4.2 2.7-1.3 7.9-2.9 11.5-3.5 3.6-0.6 9.4-2 13-3 3.6-1.1 11.7-2.8 18-3.9 6.3-1.1 14.9-2.1 19-2.2 4.2-0.1 8.5 0.3 9.7 0.9 1.5 0.8 2.7 2.8 3.4 5.5 0.6 2.3 2.3 8.2 3.9 13.2 1.6 5 4.3 14.4 6.1 21 1.7 6.6 4.2 16.5 5.5 22 1.3 5.5 3.7 15.2 5.5 21.5 1.7 6.3 4.7 16.5 6.6 22.5 2 6 4.4 12.8 5.5 15 1.1 2.2 3.9 5.9 6.2 8.3 3.4 3.5 5.6 4.8 12.6 6.9 8 2.5 8.9 2.6 14.5 1.4 3.3-0.7 8.4-2.4 11.2-3.7 4-1.8 5.9-3.4 7.7-6.6 1.3-2.4 3.2-6.5 4.2-9.3 1.7-4.9 1.6-5.3-1-21.5-1.5-9.1-4-22.1-5.6-29-1.6-6.9-3.4-15.2-4-18.5-0.7-3.3-2.3-9.6-3.6-14-1.4-4.4-3.5-13.8-4.9-21-1.3-7.2-3.2-16.6-4.2-21.1-1.8-7.9-1.8-8.2 0.2-12.4 1.1-2.3 3.3-5.5 5-6.9 1.7-1.5 5.5-3.5 8.5-4.6 3-1 6.4-2.4 7.5-3.1 1.1-0.7 5.5-2.6 9.7-4.3 4.3-1.7 8.6-3.5 9.5-4 1-0.6 6.3-3 11.8-5.6 6-2.7 11.4-4.5 13.5-4.5 1.9 0 4 0.4 4.7 0.8 0.6 0.4 3.7 4.4 6.7 9 3.1 4.5 5.6 8.4 5.6 8.7 0 0.3 1.7 3.1 3.9 6.3 2.1 3.1 6.5 9.7 9.7 14.5 3.3 4.8 7.5 11.4 9.4 14.6 1.9 3.2 4.8 7.9 6.5 10.5 1.7 2.6 6.8 10.5 11.4 17.4 4.7 7 10.7 16.1 13.5 20.2 2.8 4.1 8.4 10.9 12.6 15.1 4.4 4.4 9.6 8.5 12.5 9.9 3.7 1.8 6.6 2.4 11.5 2.3 5.5 0 7.6-0.6 13.9-3.9 4.1-2.2 8.3-5 9.3-6.4 1.1-1.4 2.6-4.7 3.4-7.5 0.8-2.7 1.4-6.8 1.4-9 0-2.2-0.7-6.7-1.4-10-0.8-3.3-3.6-9.8-6.1-14.5-2.6-4.7-6.6-11.7-8.9-15.7-2.2-3.9-5.4-9.3-7-12-1.6-2.6-5.1-8.4-7.9-12.8-2.8-4.4-6.5-10.5-8.2-13.5-1.8-3-4.8-8.2-6.8-11.5-1.9-3.3-4.8-8-6.4-10.5-1.5-2.4-3.2-5.3-3.6-6.5-0.5-1.1-2.1-3.8-3.6-6-1.6-2.2-3.6-6.2-4.7-8.9-1-2.7-2.5-5.4-3.2-6-0.7-0.6-1.8-3.6-2.4-6.6l-1-5.5c7.5-6.7 13.5-11.4 18.2-14.8 4.7-3.3 11.9-8.8 16-12.1 4.1-3.3 15.6-12.8 25.5-21.1 9.9-8.2 24-21.1 31.5-28.5 7.4-7.5 16.3-16.9 19.7-21 3.4-4.1 9.8-12.5 14.2-18.5 4.4-6 10.8-15.7 14.3-21.5 3.4-5.8 8.1-14.3 10.4-19 2.3-4.7 6.3-13.7 8.7-20 2.5-6.3 6.1-17.8 8.1-25.5 1.9-7.7 4.2-18 5-23 0.8-5 1.7-11 2-13.5 0.3-2.5 1-9.7 1.6-16 0.6-7.3 0.5-15-0.1-21-0.5-5.2-1.9-14-3-19.5-1.1-5.5-3.8-14.5-6-20-2.3-5.5-6.9-14.3-10.4-19.5-4.7-7.1-8.4-11.3-14.6-16.5-4.6-3.8-12-9.4-16.4-12.3-4.4-3-9.6-6.2-11.5-7.2-1.9-1-5.8-3.3-8.6-5.1-2.9-1.9-7.4-4.7-10-6.2-2.7-1.5-8.5-4.9-12.9-7.6-4.4-2.6-11.8-6.9-16.5-9.5-4.7-2.6-10.6-6.2-13.2-7.9-2.5-1.8-8.3-5.2-12.8-7.7-4.5-2.5-17.9-11.3-29.8-19.6-12-8.3-28.9-20.9-37.7-27.9-8.8-7.1-22.5-19.2-30.4-26.9-7.8-7.8-17.8-18.4-22-23.6-4.3-5.2-10.6-13.5-14.2-18.5-3.6-5-9.7-14.4-13.5-21-3.9-6.6-9.8-17.6-13.2-24.5-3.3-6.9-7.7-16.1-9.7-20.5-2.1-4.4-5.9-12.5-8.5-18-2.7-5.5-6.8-14-9.2-19-2.5-4.9-5.9-11.5-7.7-14.5-1.8-3-4.9-8-6.9-11.1-2-3-5.5-8.2-7.6-11.5-2.2-3.2-9.1-12.4-15.5-20.4-7.4-9.2-20.5-23.4-36.1-39-19.9-19.8-29-28-47.8-43-12.7-10.2-27.9-21.9-33.7-26-5.8-4.1-11.1-7.7-11.8-7.9-0.6-0.2-4.1-2.5-7.7-5-3.6-2.5-11-7-16.5-10-5.5-3-13.2-7.1-17-9.1-3.8-2-14.7-7.5-24-12.3-9.3-4.7-24.2-12.1-33-16.3-8.8-4.2-18.9-8.7-22.5-10.1-3.6-1.4-7-2.8-7.5-3.3-0.6-0.4-5.5-2.4-11-4.5-5.5-2-15-5.5-21-7.7-6.1-2.2-16.8-5.8-24-8-7.2-2.2-17.3-5.1-22.5-6.4-5.2-1.3-12.9-3.4-17-4.5-4.1-1.2-12.2-3.2-18-4.4-5.8-1.2-13.4-3.2-17-4.3-3.6-1.1-11.5-2.7-17.5-3.6-6.1-0.9-15.1-2.8-20-4.1-6-1.7-15.1-3-27.5-4.1-10.2-0.8-24.1-2.4-31-3.5-9.5-1.5-21-2.2-47.5-2.9-19.3-0.5-51.9-0.9-72.5-0.8-20.6 0.1-43.8 0.4-51.5 0.9z"/>
		<path id="Path 2" class="s0" d="m1253.5 578.9c-3.3 0.5-10.5 2.4-16 4.4-5.5 1.9-11.2 4-12.8 4.6-1.5 0.6-3.9 1.9-5.4 2.9-1.6 1-5.5 3.6-8.8 5.8-3.3 2.1-9 6.8-12.8 10.4-3.8 3.6-9.1 9.2-11.7 12.5-2.6 3.3-6.3 8.9-8.3 12.5-2 3.6-5.5 12.1-7.7 19-2.2 6.9-4.5 16.5-5.2 21.5-0.9 7-0.9 11.3 0 19 0.7 5.9 2.8 15 5 22 2.1 6.6 4.9 13.8 6.3 16 1.3 2.2 3.3 5.8 4.3 8 1.1 2.2 8.3 10.3 16 18.1 13.7 13.7 14.4 14.2 25.1 19.3 8.8 4.2 13.8 5.8 25.3 8.2 8.3 1.7 17.3 2.9 21.7 2.9 4.4 0 13.7-1.3 22.8-3.1 8.3-1.7 16.5-3.9 18.2-4.9 1.7-1 6.4-3.5 10.5-5.6 6.3-3.1 9.6-5.8 20.5-16.8 10-10 14.1-15 17.5-21.1 2.5-4.4 5.8-11.6 7.3-16 1.6-4.4 4-12.7 5.4-18.5 2.1-8.9 2.5-12 2-20.5-0.3-6.2-1.5-13.8-3.2-20-1.5-5.5-4.3-14-6.4-19-2-5-5.9-12.1-8.6-16-2.7-3.8-8.5-10.6-13-15.1-4.4-4.4-11.4-10.3-15.5-13.1-4.1-2.8-9.7-6.2-12.5-7.5-2.7-1.4-10-4.1-16-6.1-9.7-3.1-12.6-3.6-24.5-4-7.4-0.3-16.2-0.2-19.5 0.2z"/>
	</g>
</svg>